mtllib cube.mtl
o TestCube
v 0.000000 0.000000 1.000000
v 1.000000 0.000000 1.000000
v 1.000000 1.000000 1.000000
v 0.000000 1.000000 1.000000
v 0.000000 0.000000 -1.000000
v 1.000000 0.000000 -1.000000
v 1.000000 1.000000 -1.000000
v 0.000000 1.000000 -1.000000
vt 0.000000 0.000000
vt 1.000000 0.000000
vt 1.000000 1.000000
vt 0.000000 1.000000
vn 0.000000 0.000000 1.000000
vn 0.000000 0.000000 -1.000000
vn 1.000000 0.000000 0.000000
vn -1.000000 0.000000 0.000000
vn 0.000000 1.000000 0.000000
vn 0.000000 -1.000000 0.000000
g Front
usemtl Red
f 1/1/1 2/2/1 3/3/1 4/4/1
g Back
usemtl Blue
f 6/1/2 5/2/2 8/3/2 7/4/2
g Right
usemtl Red
f 2/1/3 6/2/3 7/3/3 3/4/3
g Left
usemtl Blue
f 5/1/4 1/2/4 4/3/4 8/4/4
g Top
usemtl Blue
f 4/1/5 3/2/5 7/3/5 8/4/5
g Bottom
usemtl Red
f 1/1/6 5/2/6 6/3/6 2/4/6